<svg width="512" height="512" viewBox="0 0 512 512" fill="none" xmlns="http://www.w3.org/2000/svg">
  <!-- 갤럭시 S25 스타일의 둥근 배경 -->
  <rect width="512" height="512" rx="128" fill="#1A237E"/>
  <!-- 갤럭시 로고 스타일 - 'G' 문자 -->
  <g transform="translate(56, 56) scale(0.8)">
    <path d="M256 96C167.6 96 96 167.6 96 256s71.6 160 160 160 160-71.6 160-160S344.4 96 256 96zM256 320c-35.3 0-64-28.7-64-64s28.7-64 64-64 64 28.7 64 64-28.7 64-64 64z" fill="white"/>
    <path d="M378 154L330 202c-6.2-10.7-14.3-20-23.8-27.5l48-48c14.5 17.5 24.5 38.5 29.8 61.5H378z" fill="#4FC3F7"/>
    <path d="M134 358l48-48c10.7 6.2 20 14.3 27.5 23.8l-48 48c-17.5-14.5-38.5-24.5-61.5-29.8V358z" fill="#4FC3F7"/>
  </g>
</svg> 